<?xml version="1.0" standalone="no"?>
<!DOCTYPE svg PUBLIC "-//W3C//DTD SVG 20010904//EN"
 "http://www.w3.org/TR/2001/REC-SVG-20010904/DTD/svg10.dtd">
<svg version="1.0" xmlns="http://www.w3.org/2000/svg"
 width="512.000000pt" height="512.000000pt" viewBox="0 0 512.000000 512.000000"
 preserveAspectRatio="xMidYMid meet">

<g transform="translate(0.000000,512.000000) scale(0.100000,-0.100000)"
fill="#000000" stroke="none">
<path d="M1905 4590 c-451 -262 -481 -281 -502 -321 -23 -42 -23 -46 -23 -460
l0 -418 33 -24 c71 -53 72 -53 72 20 l0 66 532 306 532 306 1 361 c0 274 -3
364 -12 376 -21 24 -105 68 -130 67 -13 -1 -239 -126 -503 -279z m608 53 c4
-75 7 -231 7 -347 l0 -212 -497 -287 -498 -287 -3 335 c-2 260 1 341 11 360 9
18 158 110 487 300 261 151 478 274 481 275 3 0 9 -61 12 -137z"/>
<path d="M2686 4195 c-4 -19 -2 -43 3 -53 9 -17 441 -277 441 -266 0 2 -5 13
-11 23 -9 14 -9 25 3 48 l15 31 -176 103 c-97 57 -191 113 -210 126 -46 31
-58 29 -65 -12z"/>
<path d="M2021 3714 c-25 -32 -26 -43 -4 -51 18 -7 67 41 60 61 -7 21 -35 17
-56 -10z"/>
<path d="M3795 3710 c-57 -23 -633 -372 -662 -400 -18 -18 -44 -56 -58 -84
-23 -48 -26 -70 -40 -311 -8 -143 -19 -327 -25 -410 -5 -82 -10 -158 -10 -167
0 -11 -55 -48 -160 -109 -88 -50 -160 -93 -160 -94 0 -2 67 -45 150 -96 l150
-94 -1 -75 c0 -41 -3 -92 -7 -112 l-7 -37 -230 149 c-126 82 -237 149 -247
150 -13 0 -18 -14 -23 -72 -4 -40 -5 -99 -3 -131 l3 -59 259 -165 c142 -90
261 -161 265 -158 3 4 7 43 9 88 1 45 5 92 7 104 l5 22 35 -20 35 -21 -6 -91
c-8 -143 -11 -155 -44 -172 -16 -8 -34 -15 -40 -15 -15 0 -569 356 -599 385
-23 22 -24 29 -22 131 2 95 0 106 -14 100 -9 -3 -19 -6 -21 -6 -9 0 -3 -202 6
-220 6 -10 201 -148 435 -305 l426 -286 109 66 c60 36 111 65 113 65 3 0 31
-16 63 -35 82 -50 108 -47 224 23 113 68 130 93 130 192 l0 66 188 109 187
110 3 95 3 95 -131 65 c-71 35 -130 67 -130 70 0 5 135 87 162 98 5 2 8 -3 8
-11 0 -9 62 -51 147 -100 l147 -86 29 17 c16 9 33 22 38 28 5 7 8 248 7 601
l-3 591 -97 -56 -98 -56 -2 -407 -3 -407 -70 40 c-38 23 -71 41 -71 42 -1 1
-9 138 -18 306 -48 896 -49 902 -69 933 -19 29 -203 137 -233 136 -10 0 -28
-4 -39 -9z"/>
<path d="M2015 3593 c-99 -57 -184 -108 -188 -112 -5 -5 1 -27 12 -49 21 -41
52 -66 169 -136 l62 -38 178 100 c170 95 177 101 177 130 0 28 -9 37 -95 94
-56 37 -100 74 -108 91 -7 15 -16 27 -20 26 -4 -1 -88 -48 -187 -106z"/>
<path d="M2885 3597 c-34 -16 -55 -53 -55 -97 0 -26 8 -34 68 -65 37 -20 87
-48 112 -62 52 -31 125 -35 166 -9 51 34 45 71 -23 140 -85 85 -199 124 -268
93z"/>
<path d="M774 3214 c-18 -14 -18 -15 4 -4 12 6 22 13 22 15 0 8 -5 6 -26 -11z"/>
<path d="M1205 3160 c-16 -11 -25 -20 -20 -20 6 0 24 9 40 20 17 11 26 20 20
20 -5 0 -23 -9 -40 -20z"/>
<path d="M654 3144 c-18 -14 -18 -15 4 -4 12 6 22 13 22 15 0 8 -5 6 -26 -11z"/>
<path d="M584 3104 c-18 -14 -18 -15 4 -4 12 6 22 13 22 15 0 8 -5 6 -26 -11z"/>
<path d="M534 3074 c-18 -14 -18 -15 4 -4 12 6 22 13 22 15 0 8 -5 6 -26 -11z"/>
<path d="M464 3034 c-18 -14 -18 -15 4 -4 12 6 22 13 22 15 0 8 -5 6 -26 -11z"/>
<path d="M412 3008 c-22 -11 -22 -14 -20 -162 l3 -150 99 -28 c54 -16 105 -32
113 -36 11 -7 14 -113 16 -626 l2 -618 690 -400 c380 -220 700 -404 711 -410
17 -8 29 -5 57 13 l35 23 4 596 c2 327 3 597 1 599 -1 2 -23 -9 -48 -23 l-45
-27 0 138 0 139 -80 91 c-127 147 -300 291 -502 419 -117 74 -397 214 -538
270 -99 38 -393 135 -470 155 l-44 11 24 19 c28 21 26 23 -8 7z m518 -489
c157 -62 434 -206 570 -298 156 -104 187 -128 179 -135 -5 -5 -455 -256 -781
-435 l-78 -42 0 476 c0 378 3 476 13 472 6 -2 50 -20 97 -38z m942 -596 l48
-47 0 -499 c0 -282 -4 -497 -9 -495 -25 9 -1001 572 -1001 577 0 5 896 507
910 510 2 1 26 -20 52 -46z"/>
<path d="M2773 1023 c-18 -12 -23 -25 -23 -62 l1 -46 162 -97 162 -96 5 54 c3
31 12 61 22 70 15 16 7 23 -132 105 -82 49 -155 89 -162 88 -7 0 -23 -7 -35
-16z"/>
<path d="M3565 959 c-71 -43 -134 -80 -139 -82 -5 -2 3 -15 18 -30 21 -21 27
-36 25 -60 -2 -19 1 -31 8 -30 14 3 263 140 280 155 7 6 13 32 13 58 0 40 -3
48 -25 58 -14 7 -31 12 -38 11 -7 0 -70 -36 -142 -80z"/>
<path d="M2917 567 l-216 -122 -1 -51 c0 -48 2 -52 31 -64 35 -15 24 -21 304
140 l150 86 3 51 c3 48 1 53 -26 67 -28 14 -32 13 -245 -107z"/>
<path d="M3218 683 c7 -3 16 -2 19 1 4 3 -2 6 -13 5 -11 0 -14 -3 -6 -6z"/>
<path d="M3308 683 c6 -2 18 -2 25 0 6 3 1 5 -13 5 -14 0 -19 -2 -12 -5z"/>
<path d="M3376 667 c-13 -10 -17 -24 -14 -62 l3 -50 209 -119 c201 -114 211
-118 235 -105 22 12 26 23 29 64 l3 50 -209 118 c-114 64 -215 117 -223 117
-8 0 -23 -6 -33 -13z"/>
</g>
</svg>
